<svg width="486" height="181" fill="none" xmlns="http://www.w3.org/2000/svg"><path d="m49.406 176.845-.48 3.618c-18.08-1.687-35.193-1.687-48.446 0L0 176.845c13.739-2.167 18.316-10.849 22.657-23.136l42.898-118.59c-2.168-5.064-4.82-6.509-14.704-6.509v-3.618c18.802-1.688 25.547-8.918 29.408-19.039h2.89l49.411 147.75c4.098 12.293 11.329 21.455 21.935 23.136l-.48 3.619c-21.692-1.688-45.071-1.688-66.763 0l-.48-3.619c22.657-2.167 22.415-10.848 18.559-22.656l-2.167-6.509c-6.028-19.038-27.963-26.275-44.591-26.275-6.266 0-13.016.723-18.56 1.931l-4.82 13.738c-10.363 29.408-8.438 37.604 14.219 39.771l-.006.006Zm10.606-60.74c12.773 0 27.234 3.855 36.875 12.773L68.445 43.557 42.17 117.556c5.063-.965 11.085-1.445 17.836-1.445l.006-.006ZM114.487 61.705c6.988.723 15.426.966 24.587.966 9.641.242 20.247-.243 31.575-.966v3.618C157.633 66.77 153.292 76.41 157.39 88.46l18.559 53.753 25.547-81.23h3.618l29.165 82.195 17.594-49.892c5.543-15.906 2.89-26.512-16.628-27.963v-3.612c9.883.723 18.316.965 25.789.965 7.473 0 13.016-.242 17.837-.965v3.618c-11.572 1.688-17.837 18.802-21.692 29.408l-30.367 86.05h-3.855l-28.923-77.369-25.309 77.369h-3.856l-33.742-94.968c-3.376-9.64-6.751-19.039-16.629-20.49v-3.618l-.011-.006Z" fill="black"/><path d="M265.369 119.313c0-28.922 16.392-61.463 51.342-61.463 26.998 0 45.314 21.455 43.869 51.822l-2.653 2.89h-67.005v2.653c0 30.853 14.703 47.967 37.84 47.967 13.981 0 23.137-7.953 30.853-21.692l2.653 1.202c-6.266 18.317-20.004 38.083-44.592 38.083-33.985 0-52.301-23.622-52.301-61.462h-.006Zm48.446-12.051c17.115 0 23.137-5.063 23.137-18.08 0-8.195-1.688-26.032-17.594-26.032-13.259 0-26.032 15.906-28.199 44.106h22.656v.006ZM428.878 20.247l-.722-3.619C443.825 14.461 456.355 9.155 466.719 0h2.41v147.755c0 10.606 2.41 12.774 16.149 12.774l.722 3.618c-15.669 2.167-28.2 7.473-38.563 16.628h-2.41v-20.246c-4.341 7.473-15.669 20.246-33.506 20.246-23.622 0-43.626-16.391-43.626-59.532 0-40.493 20.247-63.393 56.163-63.393 7.473 0 14.461 1.208 20.969 2.41V33.02c0-10.606-2.41-12.773-16.149-12.773Zm-8.439 148.715c11.086 0 17.115-6.029 24.588-14.462V87.975c0-19.525-8.918-24.825-22.177-24.825-19.767 0-27.72 22.178-27.72 50.135 0 35.193 6.75 55.677 25.309 55.677Z" fill="black"/></svg>